<mxfile host="app.diagrams.net" agent="Mozilla/5.0 (Windows NT 10.0; Win64; x64) AppleWebKit/537.36 (KHTML, like Gecko) Chrome/129.0.0.0 Safari/537.36" version="24.7.16">
  <diagram name="PÃ¡gina-1" id="MxQ-orbG31DfFPyitpBx">
    <mxGraphModel dx="2074" dy="1179" grid="1" gridSize="10" guides="1" tooltips="1" connect="1" arrows="1" fold="1" page="1" pageScale="1" pageWidth="500" pageHeight="1300" math="0" shadow="0">
      <root>
        <mxCell id="0" />
        <mxCell id="1" parent="0" />
        <mxCell id="oHGljW7oLv8mkp1TR-hR-1" value="Text" style="text;html=1;align=center;verticalAlign=middle;whiteSpace=wrap;rounded=0;" vertex="1" parent="1">
          <mxGeometry x="40" y="1010" width="420" height="30" as="geometry" />
        </mxCell>
        <mxCell id="oHGljW7oLv8mkp1TR-hR-2" value="Text" style="text;html=1;align=center;verticalAlign=middle;whiteSpace=wrap;rounded=0;" vertex="1" parent="1">
          <mxGeometry x="120" y="480" width="260" height="480" as="geometry" />
        </mxCell>
        <mxCell id="oHGljW7oLv8mkp1TR-hR-3" value="&lt;h1 style=&quot;margin-top: 0px;&quot;&gt;Heading&lt;/h1&gt;&lt;p&gt;Lorem ipsum dolor sit amet, consectetur adipisicing elit, sed do eiusmod tempor incididunt ut labore et dolore magna aliqua.&lt;/p&gt;" style="text;html=1;whiteSpace=wrap;overflow=hidden;rounded=0;" vertex="1" parent="1">
          <mxGeometry x="110" width="300" height="110" as="geometry" />
        </mxCell>
        <mxCell id="oHGljW7oLv8mkp1TR-hR-6" style="edgeStyle=orthogonalEdgeStyle;rounded=0;orthogonalLoop=1;jettySize=auto;html=1;" edge="1" parent="1" source="oHGljW7oLv8mkp1TR-hR-5" target="oHGljW7oLv8mkp1TR-hR-2">
          <mxGeometry relative="1" as="geometry" />
        </mxCell>
        <mxCell id="oHGljW7oLv8mkp1TR-hR-7" value="" style="edgeStyle=orthogonalEdgeStyle;rounded=0;orthogonalLoop=1;jettySize=auto;html=1;" edge="1" parent="1" source="oHGljW7oLv8mkp1TR-hR-5" target="oHGljW7oLv8mkp1TR-hR-2">
          <mxGeometry relative="1" as="geometry" />
        </mxCell>
        <mxCell id="oHGljW7oLv8mkp1TR-hR-8" value="" style="edgeStyle=orthogonalEdgeStyle;rounded=0;orthogonalLoop=1;jettySize=auto;html=1;" edge="1" parent="1" source="oHGljW7oLv8mkp1TR-hR-5" target="oHGljW7oLv8mkp1TR-hR-2">
          <mxGeometry relative="1" as="geometry" />
        </mxCell>
        <mxCell id="oHGljW7oLv8mkp1TR-hR-5" value="" style="sketch=0;outlineConnect=0;fontColor=#232F3E;gradientColor=none;fillColor=#ED7100;strokeColor=none;dashed=0;verticalLabelPosition=bottom;verticalAlign=top;align=center;html=1;fontSize=12;fontStyle=0;aspect=fixed;pointerEvents=1;shape=mxgraph.aws4.container_registry_image;" vertex="1" parent="1">
          <mxGeometry x="95" y="170" width="330" height="330" as="geometry" />
        </mxCell>
        <mxCell id="oHGljW7oLv8mkp1TR-hR-9" style="edgeStyle=orthogonalEdgeStyle;rounded=0;orthogonalLoop=1;jettySize=auto;html=1;" edge="1" parent="1" source="oHGljW7oLv8mkp1TR-hR-5" target="oHGljW7oLv8mkp1TR-hR-5">
          <mxGeometry relative="1" as="geometry" />
        </mxCell>
      </root>
    </mxGraphModel>
  </diagram>
</mxfile>
